<?xml version="1.0" encoding="UTF-8" standalone="no" ?>
<!DOCTYPE svg PUBLIC "-//W3C//DTD SVG 1.1//EN" "http://www.w3.org/Graphics/SVG/1.1/DTD/svg11.dtd">
<svg xmlns="http://www.w3.org/2000/svg" xmlns:xlink="http://www.w3.org/1999/xlink" version="1.1" width="24" height="24" viewBox="0 0 24 24" xml:space="preserve">
  <g transform="matrix(0.927549957 0 0 0.9485984343 11.9289821958 12.03915065)" id="5xb2enjW-ofMuo89YFt2E"  >
    <path style="stroke: none; stroke-width: 1; stroke-dasharray: none; stroke-linecap: butt; stroke-dashoffset: 0; stroke-linejoin: miter; stroke-miterlimit: 4; fill: rgb(0,0,0); fill-rule: nonzero; opacity: 1;"  transform=" translate(0, 0)" d="M 10.9335 10.73 L -6.4565 10.73 C -7.689830000000001 10.73 -8.74417 10.292 -9.6195 9.416 C -10.4955 8.54067 -10.9335 7.486330000000001 -10.9335 6.253 L -10.9335 6.253 L -10.9335 -6.253 C -10.9335 -7.486330000000001 -10.4955 -8.541 -9.6195 -9.417 C -8.74417 -10.29233 -7.689830000000001 -10.73 -6.4565 -10.73 L -6.4565 -10.73 L 6.419499999999999 -10.73 C 7.677499999999999 -10.73 8.744499999999999 -10.29233 9.6205 -9.417 C 10.49583 -8.541 10.9335 -7.48633 10.9335 -6.253 L 10.9335 -6.253 L 10.9335 1.5169999999999995 L -7.899499999999998 1.5169999999999995 L -7.899499999999998 6.252999999999999 C -7.899499999999998 6.647669999999999 -7.757499999999998 6.986669999999999 -7.473499999999998 7.27 C -7.1901699999999975 7.553999999999999 -6.851169999999998 7.696 -6.456499999999998 7.696 L -6.456499999999998 7.696 L 10.933500000000002 7.696 z M -7.8995 -6.253 L -7.8995 -1.5170000000000003 L 7.862500000000001 -1.5170000000000003 L 7.862500000000001 -6.253 C 7.862500000000001 -6.64767 7.72083 -6.987 7.437500000000001 -7.271 C 7.153500000000001 -7.55433 6.814170000000001 -7.696 6.419500000000001 -7.696 L 6.419500000000001 -7.696 L -6.456499999999998 -7.696 C -6.851169999999998 -7.696 -7.190169999999998 -7.554329999999999 -7.473499999999998 -7.271 C -7.757499999999998 -6.987 -7.899499999999998 -6.64767 -7.899499999999998 -6.253 z" stroke-linecap="round" />
  </g>
</svg>
